<svg xmlns="http://www.w3.org/2000/svg" xmlns:xlink="http://www.w3.org/1999/xlink" viewBox="0 0 140.42 54.376"><defs><style>.cls-1{isolation:isolate;}.cls-2{fill:url(#linear-gradient);}.cls-3,.cls-4{mix-blend-mode:screen;}.cls-3{fill:url(#linear-gradient-2);}.cls-4{fill:url(#linear-gradient-3);}.cls-5{fill:url(#linear-gradient-4);}.cls-10,.cls-6,.cls-9{mix-blend-mode:multiply;}.cls-6{fill:url(#linear-gradient-5);}.cls-7{fill:url(#linear-gradient-7);}.cls-8{fill:url(#linear-gradient-8);}.cls-9{fill:url(#linear-gradient-9);}.cls-10{fill:url(#linear-gradient-10);}.cls-11{font-size:40.253px;font-family:DINPro-Bold, DIN Pro;font-weight:700;letter-spacing:0.18em;}.cls-11,.cls-12{fill:#345273;}.cls-12{font-size:9px;font-family:DINPro-Medium, DIN Pro;letter-spacing:0.03em;}.cls-13{letter-spacing:0.025em;}</style><linearGradient id="linear-gradient" x1="4725.811" y1="6200.879" x2="4652.181" y2="6193.922" gradientTransform="translate(6226.996 -4652.678) rotate(90)" gradientUnits="userSpaceOnUse"><stop offset="0" stop-color="#32508c"/><stop offset="0.032" stop-color="#34538f"/><stop offset="0.687" stop-color="#518fbe"/><stop offset="1" stop-color="#5da6d1"/></linearGradient><linearGradient id="linear-gradient-2" x1="4730.469" y1="6217.796" x2="4653.118" y2="6173.596" gradientTransform="translate(6226.996 -4652.678) rotate(90)" gradientUnits="userSpaceOnUse"><stop offset="0" stop-color="#040706"/><stop offset="0.087" stop-color="#0b1119"/><stop offset="0.552" stop-color="#2d427c"/><stop offset="0.814" stop-color="#5071ac"/><stop offset="1" stop-color="#658ec9"/></linearGradient><linearGradient id="linear-gradient-3" x1="4660.158" y1="6184.594" x2="4696.846" y2="6208.652" gradientTransform="translate(6226.996 -4652.678) rotate(90)" gradientUnits="userSpaceOnUse"><stop offset="0" stop-color="#040706"/><stop offset="0.532" stop-color="#89896c"/><stop offset="1" stop-color="#faf7c2"/></linearGradient><linearGradient id="linear-gradient-4" x1="4717.32" y1="6206.856" x2="4665.721" y2="6215.746" gradientTransform="translate(6226.996 -4652.678) rotate(90)" gradientUnits="userSpaceOnUse"><stop offset="0.024" stop-color="#91bf4e"/><stop offset="0.465" stop-color="#83c19f"/><stop offset="0.828" stop-color="#79c3db"/><stop offset="1" stop-color="#75c4f2"/></linearGradient><linearGradient id="linear-gradient-5" x1="4856.782" y1="-4627.916" x2="4763.902" y2="-4659.631" gradientTransform="matrix(0, 1, 1, 0, 4670.585, -4755.73)" gradientUnits="userSpaceOnUse"><stop offset="0" stop-color="#481616"/><stop offset="0.032" stop-color="#4e1e1e"/><stop offset="0.516" stop-color="#ac9696"/><stop offset="0.848" stop-color="#e8e1e1"/><stop offset="1" stop-color="#fff"/></linearGradient><linearGradient id="linear-gradient-7" x1="4704.464" y1="6208.813" x2="4695.291" y2="6222.098" gradientTransform="translate(7654.21 1561.17) rotate(138.292)" gradientUnits="userSpaceOnUse"><stop offset="0.024" stop-color="#79225c"/><stop offset="0.685" stop-color="#b52160"/><stop offset="1" stop-color="#cc2162"/></linearGradient><linearGradient id="linear-gradient-8" x1="4706.938" y1="6209.56" x2="4696.404" y2="6224.815" gradientTransform="translate(6226.996 -4652.678) rotate(90)" gradientUnits="userSpaceOnUse"><stop offset="0.024" stop-color="#15193e"/><stop offset="0.074" stop-color="#171b43"/><stop offset="0.701" stop-color="#28387f"/><stop offset="1" stop-color="#2f4396"/></linearGradient><linearGradient id="linear-gradient-9" x1="4857.612" y1="-4641.643" x2="4764.732" y2="-4673.358" xlink:href="#linear-gradient-5"/><linearGradient id="linear-gradient-10" x1="4712.934" y1="6210.773" x2="4687.662" y2="6222.1" gradientTransform="translate(6226.996 -4652.678) rotate(90)" xlink:href="#linear-gradient-5"/></defs><title>Artboard 1</title><g class="cls-1"><g id="Layer_1" data-name="Layer 1"><polygon class="cls-2" points="21.24 54.376 21.24 16.71 38.098 0 38.098 54.376 21.24 54.376"/><polygon class="cls-3" points="38.116 0 21.258 54.376 38.116 54.376 38.116 0"/><polygon class="cls-4" points="21.24 54.376 36.985 1.117 38.098 0 21.24 54.376"/><polygon class="cls-5" points="9.956 54.376 9.956 33.395 21.252 22.246 21.252 54.376 9.956 54.376"/><polygon class="cls-6" points="21.24 54.376 21.252 22.246 17.981 25.474 21.24 54.376"/><polygon class="cls-6" points="21.24 54.376 21.252 22.246 19.669 23.81 21.24 54.376"/><rect class="cls-7" x="9.94" y="37.822" width="0.011" height="16.554" transform="translate(-31.086 22.853) rotate(-48.292)"/><polygon class="cls-8" points="1.713 47.299 1.713 54.376 9.956 54.376 9.956 38.122 1.713 47.299"/><polygon class="cls-9" points="9.95 38.129 9.154 39.014 9.943 54.376 9.95 38.129"/><polygon class="cls-10" points="9.943 54.376 9.95 38.129 8.316 39.947 9.943 54.376"/><text class="cls-11" transform="translate(48.778 38.594)">ARC</text><text class="cls-12" transform="translate(48.101 54.143)">Consul<tspan class="cls-13" x="29.618" y="0">t</tspan><tspan x="32.922" y="0">oria e Análise</tspan></text></g></g></svg>